<?xml version="1.0" encoding="UTF-8" standalone="no"?>
<svg
   xmlns:dc="http://purl.org/dc/elements/1.1/"
   xmlns:cc="http://creativecommons.org/ns#"
   xmlns:rdf="http://www.w3.org/1999/02/22-rdf-syntax-ns#"
   xmlns:svg="http://www.w3.org/2000/svg"
   xmlns="http://www.w3.org/2000/svg"
   xmlns:sodipodi="http://sodipodi.sourceforge.net/DTD/sodipodi-0.dtd"
   xmlns:inkscape="http://www.inkscape.org/namespaces/inkscape"
   version="1.1"
   id="Layer_1"
   x="0px"
   y="0px"
   viewBox="0 0 1920 1080"
   style="enable-background:new 0 0 1920 1080;"
   xml:space="preserve"
   sodipodi:docname="walking2.svg"
   inkscape:version="1.0.2 (e86c870879, 2021-01-15)"><metadata
   id="metadata81"><rdf:RDF><cc:Work
       rdf:about=""><dc:format>image/svg+xml</dc:format><dc:type
         rdf:resource="http://purl.org/dc/dcmitype/StillImage" /><dc:title></dc:title></cc:Work></rdf:RDF></metadata><defs
   id="defs79">
	
	
	
	
	
	
	
	
	
	
	
	
	
</defs><sodipodi:namedview
   pagecolor="#ffffff"
   bordercolor="#666666"
   borderopacity="1"
   objecttolerance="10"
   gridtolerance="10"
   guidetolerance="10"
   inkscape:pageopacity="0"
   inkscape:pageshadow="2"
   inkscape:window-width="1920"
   inkscape:window-height="1018"
   id="namedview77"
   showgrid="false"
   inkscape:zoom="0.70281113"
   inkscape:cx="960"
   inkscape:cy="596.9143"
   inkscape:window-x="0"
   inkscape:window-y="30"
   inkscape:window-maximized="1"
   inkscape:current-layer="Layer_1" />
<style
   type="text/css"
   id="style2">
	.st0{fill:#405A7F;}
	.st1{fill:#754C24;}
	.st2{fill:#333333;}
	.st3{fill:#4D4D4D;}
	.st4{fill:#BF844F;}
	.st5{fill:#A06D42;}
	.st6{fill:#603813;}
	.st7{fill:#8C6239;}
	.st8{fill:none;stroke:#8C6239;stroke-width:4.5315;stroke-linecap:round;stroke-miterlimit:10;}
</style>
<path
   class="st0"
   d="m 978.6,414.8 v 0 c -5.2,8.7 -2.4,20.1 6.3,25.3 0,0 21.4,40.8 76,72.7 54.7,31.9 88.6,26.2 88.6,26.2 8.7,5.2 20.1,2.4 25.3,-6.3 v 0 c 5.2,-8.7 2.4,-20.1 -6.3,-25.3 0,0 -34.2,6.5 -90.3,-27.2 -56.1,-33.7 -74.4,-71.7 -74.4,-71.7 -8.7,-5.2 -20,-2.4 -25.2,6.3 z"
   id="path4"
   style="fill-opacity:1;fill:none;stroke:none;stroke-opacity:1" /><path
   class="st1"
   d="m 817.5,880.7 -33.8,23.2 45.3,66.9 c 0,0 13.4,-12.9 5.2,-31.2 -8.3,-18.4 -27.1,-25.8 -27.1,-25.8 l 21.3,-17.2 z"
   id="path6" /><path
   class="st2"
   d="m 810.3,869.4 20.3,32.5 c 0,0 73.1,-35.8 101.2,-100.9 28.1,-65.1 25.4,-194.1 25.4,-194.1 l -37.6,-16.3 c 0,0 6.2,129 -26.3,196.1 -23.9,49.3 -83,82.7 -83,82.7 z"
   id="path8" /><path
   class="st3"
   d="M 938.3,665.2 H 937 c -41.6,0 -75.4,-34.2 -75.4,-75.8 v -0.2 h 152 v 0.2 c 0,41.6 -33.7,75.8 -75.3,75.8 z"
   id="path10" /><path
   class="st1"
   d="m 1043.8,927.2 0.7,41 80.8,-1 c 0,0 -3.4,-18.3 -23.2,-21.5 -19.9,-3.2 -36.4,8.4 -36.4,8.4 l -2.6,-27.3 z"
   id="path12" /><path
   class="st3"
   d="m 1035.3,929 h 38.3 c 0,0 6,-66.5 -5.3,-136 -14.4,-89 -137,-172.6 -137,-172.6 l -28.1,36.7 c 0,0 111.6,64.9 125.7,147.5 10.8,63.5 6.4,124.4 6.4,124.4 z"
   id="path14" /><path
   class="st0"
   d="m 944.8,381.6 v 0 c 38,0 68.8,21.5 68.8,59.5 v 148 h -152 v -53.7 c -1.6,-53.8 2.4,-109.8 31.7,-139 13.1,-13.1 42.1,-14.8 51.5,-14.8 z"
   id="path16"
   style="fill-opacity:1;fill:none;stroke:none;stroke-opacity:1" /><path
   class="st0"
   d="m 739.3,522.2 v 0 c 5.9,8.3 17.4,10.3 25.7,4.5 0,0 27.2,-50.6 56.8,-71.4 29.6,-20.8 94.9,-35.3 94.9,-35.3 8.3,-5.9 10.3,-17.4 4.5,-25.7 v 0 c -5.9,-8.3 -14.9,-6.4 -25.7,-4.5 0,0 -64.2,13.6 -94.3,34.8 -30.1,21.1 -57.5,71.9 -57.5,71.9 -8.3,5.8 -10.3,17.3 -4.4,25.7 z"
   id="path18"
   style="fill-opacity:1;fill:none;stroke:none;stroke-opacity:1" /><g
   id="g32">
		<path
   class="st4"
   d="m 736.6,514.3 -7.2,-8.8 -27.6,22.4 c -2.4,2 -2.8,5.6 -0.8,8 v 0 c 2,2.4 5.6,2.8 8,0.8 z"
   id="path20" />
		<path
   class="st4"
   d="m 744,523.5 -7.5,-8.6 -32.4,28.2 c -2.4,2.1 -2.6,5.6 -0.6,8 v 0 c 2.1,2.4 5.6,2.6 8,0.6 z"
   id="path22" />
		<path
   class="st4"
   d="m 747.6,534.1 -8.3,-7.7 -29.2,31.5 c -2.1,2.3 -2,5.9 0.3,8 v 0 c 2.3,2.1 5.9,2 8,-0.3 z"
   id="path24" />
		<path
   class="st4"
   d="m 757,535.4 -9.6,-6.1 -22.9,36.3 c -1.7,2.7 -0.9,6.2 1.8,7.8 v 0 c 2.7,1.7 6.2,0.9 7.8,-1.8 z"
   id="path26" />
		<path
   class="st4"
   d="m 763.7,531 -11.3,-1.1 -2.5,25.7 c -0.3,3.1 2,5.9 5.1,6.2 v 0 c 3.1,0.3 5.9,-2 6.2,-5.1 z"
   id="path28" />
		<path
   class="st4"
   d="m 761.1,537.6 -6.2,6.6 c -1.1,1.2 -3,1.3 -4.2,0.2 l -29.1,-27 c -1.2,-1.1 -1.3,-3 -0.2,-4.2 l 6.2,-6.6 c 4.3,-4.6 11.4,-4.9 16,-0.6 l 16.9,15.6 c 4.5,4.2 4.8,11.4 0.6,16 z"
   id="path30" />
	</g><g
   id="g46">
		<path
   class="st4"
   d="m 1162.3,534.8 -2.5,11.1 34.6,7.9 c 3.1,0.7 6.1,-1.2 6.8,-4.3 v 0 c 0.7,-3.1 -1.2,-6.1 -4.3,-6.8 z"
   id="path34" />
		<path
   class="st4"
   d="m 1165,523.4 -2.1,11.2 42.1,8.1 c 3.1,0.6 6.1,-1.4 6.7,-4.5 v 0 c 0.6,-3.1 -1.4,-6.1 -4.5,-6.7 z"
   id="path36" />
		<path
   class="st4"
   d="m 1171.1,514 -0.9,11.3 42.8,3.5 c 3.1,0.3 5.9,-2.1 6.1,-5.2 v 0 c 0.3,-3.1 -2.1,-5.9 -5.2,-6.1 z"
   id="path38" />
		<path
   class="st4"
   d="m 1166.3,505.7 1.2,11.3 42.7,-4.4 c 3.1,-0.3 5.4,-3.1 5.1,-6.2 v 0 c -0.3,-3.1 -3.1,-5.4 -6.2,-5.1 z"
   id="path40" />
		<path
   class="st4"
   d="m 1158.7,503.2 6.1,9.6 21.8,-13.9 c 2.6,-1.7 3.4,-5.2 1.7,-7.8 v 0 c -1.7,-2.6 -5.2,-3.4 -7.8,-1.7 z"
   id="path42" />
		<path
   class="st4"
   d="m 1165.5,501.2 9,0.7 c 1.7,0.1 2.9,1.6 2.7,3.2 l -3.3,39.5 c -0.1,1.7 -1.6,2.9 -3.2,2.7 l -9,-0.7 c -6.2,-0.5 -10.9,-6 -10.4,-12.2 l 1.9,-22.9 c 0.6,-6.1 6.1,-10.8 12.3,-10.3 z"
   id="path44" />
	</g><path
   class="st4"
   d="m 974.3,384.4 c 0,13.4 -10.9,24.5 -24.3,24.5 v 0 h -0.2 c -13.4,0 -24.5,-11.1 -24.5,-24.5 v -21.5 h 49 z"
   id="path48" /><path
   class="st5"
   d="m 925.3,378.8 c 9.5,4.1 19.4,6.3 28.9,6.3 6.6,0 13.4,-1.1 20.1,-3.1 v -15.5 h -49 z"
   id="path50" /><g
   id="g72">
		<path
   class="st6"
   d="m 1062.6,232.8 c -1.9,-9.7 -9.7,-16.8 -18.9,-18.3 5,-6.6 7.2,-15.2 5.5,-24 -3,-15.7 -17.4,-26.2 -33,-24.6 0.6,-3.3 0.7,-6.8 0,-10.3 -2.8,-14.6 -16.9,-24.2 -31.5,-21.4 -7.2,1.4 -13.2,5.5 -17.1,11.1 0,-0.1 0,-0.1 0,-0.2 -2.6,-13.6 -15.7,-22.5 -29.3,-19.9 -8.6,1.6 -15.4,7.5 -18.5,15.1 -6.4,-5 -14.8,-7.3 -23.4,-5.7 -13,2.5 -22.3,13.3 -23.5,25.9 -4.7,-1.7 -10,-2.2 -15.3,-1.2 -15.8,3 -26.1,18.2 -23.1,34 0.4,2.1 1,4.2 1.9,6.1 -16.6,3.3 -27.4,19.4 -24.2,36 2.1,11.2 10,19.8 20,23.3 -6.3,5.1 -9.6,13.4 -8,21.8 1.8,9.3 9,16.2 17.7,17.9 -1.8,3.6 -2.5,7.9 -1.6,12.1 1.9,9.9 11.1,16.6 20.9,15.6 -0.5,2.4 -0.5,5 0,7.6 2.1,10.8 12.5,17.9 23.3,15.8 7.5,-1.4 13.1,-6.9 15.3,-13.6 16.9,7.5 36.1,10.1 55.6,6.4 19.8,-3.8 36.9,-13.5 49.8,-27 4.5,6.5 12.5,10 20.8,8.5 11.2,-2.1 18.6,-13 16.4,-24.2 -0.4,-2 -1.1,-3.9 -1.9,-5.6 0.6,-0.1 1.2,-0.2 1.8,-0.3 12.7,-2.4 21,-14.7 18.6,-27.4 -0.9,-4.6 -3.1,-8.7 -6.1,-11.8 6.1,-5 9.4,-13.3 7.8,-21.7 z"
   id="path52" />
		<path
   class="st4"
   d="m 955.7,375.3 c -34.9,0 -76.8,-30.5 -76.8,-73.2 v -66.2 c 0,-34.4 27.9,-62.4 62.4,-62.4 h 29.4 c 34.4,0 62.4,27.9 62.4,62.4 v 66.2 c -0.2,42.7 -30.5,73.2 -77.4,73.2 z"
   id="path54" />
		<rect
   x="860.70001"
   y="230.60001"
   class="st6"
   width="36.299999"
   height="39"
   id="rect56" />
		<circle
   class="st4"
   cx="878.5"
   cy="267.39999"
   r="21.9"
   id="circle58" />
		<path
   class="st7"
   d="m 874.1,270.5 c 0,-4.3 3.5,-7.8 7.8,-7.8 1.2,0 2.3,0.3 3.3,0.7 -1.4,-2.3 -3.8,-3.8 -6.7,-3.8 -4.3,0 -7.8,3.5 -7.8,7.8 0,3.1 1.8,5.8 4.5,7 -0.7,-1.1 -1.1,-2.5 -1.1,-3.9 z"
   id="path60" />
		<ellipse
   class="st2"
   cx="957.5"
   cy="270"
   rx="5"
   ry="8.8000002"
   id="ellipse62" />
		<ellipse
   class="st2"
   cx="1021"
   cy="270"
   rx="5"
   ry="8.8000002"
   id="ellipse64" />
		<path
   class="st7"
   d="M 984.4,279.1 V 295 c 0,0.7 0.9,1.3 1.6,1.3 h 9.4 c 2.6,0 4,-3 2.3,-4.9 l -10.9,-13 c -0.7,-1 -2.4,-0.5 -2.4,0.7 z"
   id="path66" />
		<path
   class="st8"
   d="m 963.9,305.1 c 0,13.6 11.1,24.7 24.7,24.7 v 0 c 13.6,0 24.7,-11.1 24.7,-24.7"
   id="path68" />
		<path
   class="st6"
   d="m 1037.1,208.9 v -8.5 c 0,-16.8 -13.6,-30.4 -30.4,-30.4 h -97.1 c -16.8,0 -30.4,13.6 -30.4,30.4 v 23.3 c -1,2.8 -1,5.6 0,8.4 l 3.4,6.5 c 5.5,6 15.2,7.2 23.4,2.5 7.8,-4.5 11.6,-12.9 9.9,-20.4 l 1.9,-1 c 2.8,1.5 6,2.4 9.4,2.4 8.7,0 16.1,-5.7 18.6,-13.7 3.2,9 12.5,15.5 23.4,15.5 8.1,0 15.4,-3.6 19.8,-9.2 1.6,6.4 6,12.6 12.6,16.8 12.2,7.7 27.4,5.7 33.9,-4.4 3.4,-5.4 3.6,-12 1.6,-18.2 z"
   id="path70" />
	</g>
</svg>
